<?xml version="1.0" encoding="UTF-8"?>
<!-- Generated by Pixelmator Pro 3.6.11 -->
<svg width="500" height="500" viewBox="0 0 500 500" xmlns="http://www.w3.org/2000/svg">
    <g id="Group">
        <clipPath id="clipPath1">
            <path d="M 56.31667 59.624308 L 443.683315 59.624308 L 443.683315 447 L 56.31667 447 Z M 56.31667 59.624308"/>
        </clipPath>
        <g id="g1" clip-path="url(#clipPath1)">
            <clipPath id="clipPath2">
                <path d="M 250.000006 59.624308 C 143.030005 59.624308 56.31667 146.346717 56.31667 253.31669 C 56.31667 360.286664 143.030005 447 250.000006 447 C 356.969979 447 443.683315 360.286664 443.683315 253.31669 C 443.683315 146.346717 356.969979 59.624308 250.000006 59.624308 Z M 250.000006 59.624308"/>
            </clipPath>
            <g id="g2" clip-path="url(#clipPath2)">
                <path id="Path" fill="#90a793" stroke="none" d="M 56.316669 59.624298 L 443.683319 59.624298 L 443.683319 447 L 56.316669 447 Z M 56.316669 59.624298"/>
            </g>
        </g>
        <clipPath id="clipPath3">
            <path d="M 143.772556 6.198189 L 355.883346 6.198189 L 355.883346 444.328702 L 143.772556 444.328702 Z M 143.772556 6.198189"/>
        </clipPath>
        <g id="g3" clip-path="url(#clipPath3)">
            <path id="path1" fill="#000000" fill-rule="evenodd" stroke="none" d="M 226.193695 74.103699 C 227.18071 68.978424 228.747284 62.875122 230.639816 57.342377 C 229.40831 51.972626 230.476822 46.032318 232.867416 40.336578 C 236.489548 31.833649 243.235718 23.819733 249.492905 19.201538 C 252.789047 16.80188 256.990662 15.81488 260.368317 13.587311 L 265.964447 10.363586 C 267.368042 9.702576 268.02002 10.861633 268.101532 11.024628 C 268.273529 11.269135 268.599518 12.102203 267.857025 12.926239 L 265.882935 14.655792 L 264.397888 18.04248 C 262.921875 22.416199 261.518311 28.610016 258.801727 34.803802 C 255.750122 41.740112 248.840927 49.002472 246.287338 52.054108 C 244.394791 54.372223 241.759705 55.277771 239.124634 56.020325 C 237.141525 56.599823 235.085968 57.007324 233.600891 58.410919 C 230.23233 68.072876 227.760239 79.799438 228.249222 83.756653 L 228.991776 86.482239 C 231.626862 95.320221 233.519394 104.402679 234.922974 113.485077 L 235.167465 112.652008 C 236.317474 108.27832 238.137589 101.514008 239.948654 96.642273 C 241.098663 93.500092 242.248703 91.109497 243.154221 90.285461 L 245.544815 87.641357 C 245.381821 86.817291 245.544815 85.576752 245.952301 84.173157 C 247.029877 80.20694 249.990967 74.348175 250.73349 72.863129 C 252.54454 69.313446 253.857559 65.845276 256.90918 63.038116 C 260.938751 59.32547 276.178802 50.904083 287.289612 48.178406 C 289.680206 47.598907 291.898804 47.272919 293.800415 47.272919 L 295.194885 47.354431 C 296.924469 47.517426 298.246521 48.015411 299.315063 48.839478 L 299.885559 49.989502 C 299.885559 50.324524 299.804047 50.904083 299.315063 51.483643 L 296.263428 53.62973 C 293.465332 55.775818 291.491302 58.582947 289.43573 61.471588 C 287.787689 63.78067 287.045135 66.58783 285.560089 68.896942 C 281.530457 75.253723 271.732666 82.525116 264.234894 84.173157 C 259.046234 85.332245 253.939056 85.821228 249.411407 88.628357 L 245.300323 92.513062 C 244.5578 93.174103 243.815247 95.157227 242.909729 97.629303 C 240.600632 104.067596 238.137589 113.892578 237.313568 116.862701 C 236.978531 118.184784 237.060028 119.841888 237.060028 121.408478 L 236.571045 124.795135 L 242.746735 181.680389 C 245.381821 166.730103 251.140976 150.466858 256.003662 136.023712 L 256.329651 122.567535 C 255.840652 117.940277 257.651733 114.227631 258.638733 109.935425 C 259.462769 106.295197 261.436829 103.243561 263.908905 100.517944 L 270.827118 93.092621 C 272.801208 90.774445 274.195679 89.624451 275.182739 89.126404 L 277.165833 88.546844 C 278.397369 88.546844 278.723358 89.461456 278.813873 89.705963 L 279.05838 93.174103 L 277.736328 101.178955 C 276.667786 107.454254 275.925293 114.553619 272.303162 120.004883 C 270.166138 123.310089 267.449554 126.026672 264.814453 128.924347 C 262.423859 131.559418 260.205322 134.285095 258.801727 137.753235 L 258.475739 138.414307 C 255.261124 147.913269 251.720505 158.145721 249.003922 168.133728 L 249.085419 168.052216 C 251.140976 165.00058 252.707535 163.18045 260.694275 156.162598 L 270.329132 143.367493 C 276.260284 135.444153 285.071106 131.812988 293.881897 127.683777 L 305.237213 122.893524 L 306.966766 124.623077 L 306.640778 126.778259 C 305.490723 130.409393 300.881622 137.916229 299.804047 138.993805 C 293.963409 144.8526 288.774719 151.046417 280.624969 153.527527 C 277.491821 154.433075 272.882721 154.840546 268.762512 155.918121 C 266.381012 156.49765 264.153412 157.321716 262.83136 158.72525 L 262.423859 158.969757 C 254.844574 165.661621 253.53157 167.22818 251.476013 170.361298 C 250.814987 171.438873 247.437378 176.890137 245.870804 182.830444 L 245.707809 183.246948 C 244.394791 191.088837 243.978241 198.604706 245.046783 205.124512 L 244.883789 206.03006 C 248.098404 244.089386 250.398453 282.646729 256.492645 319.882019 L 256.492645 319.800537 C 257.733215 310.301514 260.694275 300.069092 264.651459 290.162598 L 265.140442 288.922028 C 267.612549 282.809692 270.492126 276.869446 273.462219 271.336731 L 276.423279 261.430206 C 277.81781 256.558502 279.05838 251.768234 280.950958 247.15004 L 281.856445 244.089386 C 282.517517 238.81015 281.856445 233.440369 281.611969 228.161133 C 281.358459 222.465393 281.611969 216.851074 284.165558 211.399811 L 291.735809 198.51413 L 293.057861 198.025146 L 294.126404 198.686188 L 295.774445 204.626434 C 301.126099 221.061768 292.722778 231.792267 285.071106 244.668884 L 283.912048 248.218582 C 282.354523 252.103302 281.195465 256.060425 280.04541 260.026672 L 280.208405 259.782166 C 283.087982 255.317886 285.895142 251.360748 288.611725 248.055588 C 292.894867 242.848785 298.246521 239.960175 302.611145 235.260498 C 304.503723 233.195892 305.572235 230.225739 307.383301 227.907562 L 308.3703 225.761475 C 309.438843 222.791382 313.060974 216.099487 313.721985 214.949463 C 315.288574 212.223846 315.949585 209.172211 317.507111 206.528046 C 321.129242 200.252747 327.721466 194.801483 333.897156 191.170349 C 336.28775 189.766724 344.600494 187.702118 349.789185 186.054077 L 354.81485 184.396973 C 355.222351 184.569031 355.883331 184.89502 355.883331 185.800537 L 353.492767 193.07196 C 351.844696 197.862152 349.870667 203.059906 345.832001 206.446564 C 340.733887 210.575775 336.532257 216.43457 330.682526 219.486145 C 326.978912 221.469269 322.858765 222.546875 318.992157 223.950439 C 315.451569 225.263458 312.155426 226.920563 309.773895 230.135162 L 309.438843 230.470215 C 307.872314 232.779327 306.72226 235.504974 304.911224 237.488098 C 300.628052 242.106262 295.276367 245.003952 291.074738 250.120193 C 286.384125 255.815948 281.195465 263.576294 276.423279 272.3237 L 274.367767 276.289917 C 282.100952 269.109131 288.358154 264.563354 296.34491 260.769196 L 299.641052 257.71756 C 302.611145 255.154892 304.74823 252.347794 307.872314 249.866623 C 314.383026 244.750381 320.223694 238.475067 328.210449 235.504974 C 331.588074 234.264374 336.115692 234.436432 339.656311 234.264374 L 345.587494 233.684875 C 346.248535 233.684875 346.828094 234.101379 347.072601 234.680939 C 347.317078 235.34198 347.072601 236.165985 346.493042 236.58255 L 345.587494 237.243591 C 344.356018 238.312073 343.115417 240.041656 342.2099 241.445221 C 339.574829 245.411438 336.450745 249.37764 332.665619 252.347794 C 328.463989 255.652954 323.764313 258.206543 318.910645 260.271149 C 316.275574 261.430206 313.477478 262.752319 310.507385 262.833801 L 310.099884 262.833801 C 305.898224 262.833801 302.031647 262.009766 297.99295 263.576294 L 297.422485 263.657806 C 289.517212 267.451996 283.260071 272.079224 275.43631 279.513611 C 273.86969 280.998657 270.655121 284.874329 267.775543 290.325623 C 262.668365 302.957703 259.127716 316.250854 259.046234 327.80542 C 259.046234 330.612549 259.127716 333.7547 259.54425 336.561829 L 261.355316 345.309265 C 264.651459 360.087463 269.179077 374.621185 273.371704 389.145844 L 274.114197 378.750366 L 278.723358 360.58551 L 277.81781 351.503052 C 277.410339 350.180969 277.247345 348.858917 277.328827 347.455322 L 277.084351 346.386841 C 273.706696 336.887817 268.68103 328.964478 268.925507 318.396973 C 269.007019 314.84729 268.925507 311.216125 268.518036 307.666443 C 268.518036 307.331421 268.518036 305.185303 268.925507 304.279785 C 269.342072 303.365204 270.003143 303.039215 270.573608 303.039215 L 270.655121 303.039215 C 270.90863 303.039215 271.560608 303.120728 272.140167 303.86322 L 277.573334 312.61969 C 281.693451 319.882019 283.178558 328.140442 282.761993 336.480347 C 282.598999 338.952454 281.774963 341.515076 281.113953 344.150146 L 280.543488 347.37384 L 281.195465 353.486145 C 283.99353 345.807281 287.289612 338.372925 290.42276 331.355042 L 290.830261 329.208954 C 291.898804 325.496307 295.35788 317.654419 295.520874 316.250854 C 296.100433 311.37912 295.855927 306.92392 295.937439 302.622681 C 296.100433 295.695374 297.087463 289.248016 303.263123 282.32074 L 309.773895 273.899323 L 311.005402 271.173706 C 311.412872 270.594177 311.992432 270.34967 312.490479 270.34967 L 313.803467 270.675659 C 314.464539 271.173706 315.044067 272.079224 315.451569 273.238312 C 316.031067 275.130859 316.112579 277.774963 316.357056 278.85257 C 319.816193 296.102875 314.464539 304.524292 307.301819 313.190186 C 302.855652 318.559937 297.748474 323.929749 293.709839 331.771606 C 289.18222 341.67807 284.491547 352.571564 281.113953 363.718628 L 281.113953 363.637146 C 284.491547 358.439392 288.937714 353.975159 293.057861 349.356934 L 294.126404 348.279358 C 296.181915 344.068665 297.340973 339.694946 299.641052 336.480347 C 302.031647 333.093689 305.327728 330.368042 309.357361 327.316406 C 311.992432 325.333313 315.370056 324.255737 317.923645 322.191101 C 320.558746 320.126526 323.519806 318.396973 326.489929 316.739838 L 329.776978 315.173279 C 330.682526 315.173279 331.180573 315.752808 331.343567 316.413849 C 332.004578 318.804443 331.506561 321.041107 330.519531 323.268707 L 327.88446 328.466431 C 324.92337 335.72876 316.112579 343.987183 308.696289 346.875793 C 306.559265 347.699829 304.087189 348.034851 301.615082 348.451416 C 299.55957 348.858917 297.666962 349.356934 296.181915 350.679016 L 295.276367 351.503052 C 291.165314 356.121246 286.719147 360.58551 283.423065 365.864746 L 278.895386 373.21759 L 277.81781 377.093262 C 275.843781 388.077301 275.762299 398.889313 279.221375 408.967834 L 279.221375 409.954895 C 280.950958 414.582123 283.749054 419.200317 286.22113 423.909058 C 289.517212 430.102844 292.233795 436.459656 291.980286 442.816467 C 291.980286 443.640503 291.246826 444.301544 290.42276 444.301544 L 290.341278 444.301544 C 289.43573 444.220032 288.774719 443.559021 288.856232 442.644409 C 289.100708 436.867157 286.465637 431.089905 283.504547 425.394104 C 280.289917 419.281799 276.667786 413.26004 275.182739 407.31073 C 271.234619 391.952972 266.208923 376.432251 262.016388 360.829987 L 252.300049 349.356934 C 248.261398 346.794312 237.802551 340.274536 229.815796 336.887817 L 223.060547 334.986206 L 218.451431 336.561829 C 216.80336 337.304382 215.164368 337.965424 213.353302 338.046936 L 210.464676 338.128418 C 206.100021 338.128418 201.65387 337.385864 196.718765 335.9823 C 190.208008 334.162201 184.285858 330.03302 178.436157 326.899841 C 176.3806 325.740784 173.58252 325.333313 171.354919 324.753754 L 167.488327 324.255737 L 166.827271 323.187195 C 166.745773 322.77063 166.745773 322.272614 167.153259 321.702148 C 167.895813 320.624542 169.127319 319.800537 170.856888 319.139496 C 173.002991 318.396973 175.964066 317.980408 179.341675 317.898926 C 188.233948 317.654419 200.259369 319.465485 208.327621 321.865112 C 211.949722 322.933655 214.8293 324.092712 216.314377 325.251831 L 219.193954 328.221924 C 220.099472 329.371948 221.00502 330.694031 222.490067 331.853088 L 223.640106 331.934601 C 225.614136 332.097595 228.167725 332.840149 231.056381 334.080688 C 235.085968 335.72876 239.695114 338.2099 243.896744 340.600525 L 236.815536 334.660217 C 227.678741 327.316406 215.571854 318.233948 206.263016 308.979492 L 205.692535 308.490479 C 204.950012 307.494385 203.464935 306.92392 201.988937 306.344391 L 196.88176 304.361267 C 188.559937 299.906097 180.663757 291.566162 176.3806 283.144775 C 173.002991 276.534424 171.191925 269.353607 167.97731 262.752319 L 165.423721 258.623108 C 165.016235 257.962036 165.097733 257.138 165.586716 256.640015 L 167.651321 256.395508 L 171.517914 259.030579 C 177.449112 262.996796 182.55629 267.786987 187.989456 272.3237 C 194.165176 277.612 197.542786 283.063293 200.259369 288.922028 C 202.812958 294.373291 204.787018 300.150574 208.164627 306.262878 C 215.408859 313.525208 224.464127 320.787537 232.532379 327.144348 L 231.708359 322.689148 C 231.38237 318.722961 228.828781 315.915833 226.112198 313.280731 C 222.97905 310.220032 219.610489 307.331421 218.125443 303.700256 C 216.314377 299.326538 216.558868 299.815521 215.897842 296.265869 L 211.288696 275.384399 C 210.88121 274.723389 210.962708 273.899323 211.533188 273.319824 C 212.112717 272.821777 213.018265 272.740265 213.597794 273.238312 L 217.880951 276.787964 C 224.138138 282.230164 229.326813 288.922028 233.030411 296.265869 C 236.072983 302.21521 235.665497 308.734985 235.33046 315.091797 C 235.085968 320.045013 234.922974 324.916748 237.060028 329.371948 L 239.450623 332.51416 L 246.205841 338.128418 C 251.059479 342.502136 256.085144 348.532928 260.612762 353.893646 L 256.90918 337.385864 C 253.857559 322.109619 251.55751 306.507385 249.664963 290.823639 L 248.922424 289.664581 C 248.016907 279.595093 240.682129 261.18573 231.708359 243.509827 C 228.58429 238.728638 225.20665 236.002991 220.262466 233.440369 L 210.799713 228.324127 C 209.151642 228.161133 206.842545 227.989075 205.276001 228.324127 L 187.083939 231.873779 C 184.693344 231.873779 182.30275 231.457275 179.921204 230.388733 C 176.625092 228.985168 173.165985 226.341034 169.217865 221.804321 L 165.505219 218.336182 C 164.436676 217.177063 163.612656 215.936493 163.368164 214.86795 L 163.694153 213.464417 C 164.02919 212.96637 165.097733 212.549835 165.342224 212.468353 C 168.058807 211.888794 170.856888 211.481323 173.664017 211.562805 L 176.95108 211.7258 C 185.272873 212.721863 193.422623 212.721863 201.164886 216.679047 C 202.812958 217.503052 205.85553 220.400787 208.409119 222.628387 C 209.812698 223.868927 211.044205 225.018951 211.786728 225.263458 L 226.275192 233.195892 C 218.614426 219.486145 210.464676 207.515106 204.125961 202.23584 L 197.70578 198.269653 L 188.315445 197.608643 C 182.474792 196.703094 176.462097 194.394012 171.354919 191.414825 C 161.23111 185.55603 157.192474 179.941772 153.235306 173.421967 C 150.772263 169.292786 148.300171 164.756073 144.261536 159.549316 C 143.772552 158.888245 143.85405 158.308716 143.935547 158.145721 L 145.665085 156.905151 L 148.544662 158.480774 C 149.694702 159.223328 151.342743 159.712311 152.664825 160.047302 L 168.312347 164.176514 C 173.745514 165.661621 178.273163 169.129791 182.221252 173.340485 C 186.015427 177.297607 189.30249 181.924896 192.598602 185.800537 C 195.070694 188.698242 197.70578 192.990448 200.748352 195.707031 L 202.151932 196.703094 C 204.207458 197.943665 207.005539 200.415741 208.490616 201.737854 L 208.898102 202.398834 C 212.936768 206.528046 217.464386 212.640381 222.073532 219.821228 L 222.073532 219.658234 C 220.43454 214.125458 219.112457 208.339142 218.043945 202.724823 C 217.708878 201.239777 217.708878 200.089752 216.23288 195.381042 C 210.962708 192.329407 204.950012 185.800537 202.151932 178.375244 C 201.164886 175.731079 200.911346 172.842438 200.748352 170.198303 C 200.585358 167.889221 200.585358 165.661621 200.096375 164.176514 C 199.272354 161.695404 199.181778 158.969757 198.031769 156.49765 L 196.220703 153.02951 C 196.057709 152.449951 196.3022 152.033386 196.465195 151.707397 L 197.461288 151.046417 C 198.113266 150.883423 199.181778 151.127899 200.422363 152.033386 C 203.464935 154.179504 208.65361 160.291809 209.722122 161.776917 C 211.623734 164.502502 214.00528 166.567108 216.069885 169.129791 C 219.936478 174.083038 221.249512 178.040161 221.249512 184.396973 C 221.249512 186.715149 220.760529 188.281677 220.262466 189.848236 C 219.85498 191.170349 219.438446 192.492401 219.438446 194.557007 L 219.356949 194.964478 C 220.842026 199.510254 220.842026 200.750793 221.168015 202.23584 C 222.897552 210.575775 224.880661 219.323151 228.00473 227.16507 L 230.884308 234.762421 L 235.991486 244.668884 C 240.772675 254.249405 244.965286 263.902283 247.93541 272.3237 L 247.853912 271.916199 C 244.394791 236.165985 242.411697 200.00827 238.219086 164.756073 L 235.085968 134.366577 L 228.910278 118.438324 C 228.00473 116.038666 226.356689 113.892578 224.382629 112.326019 L 222.073532 110.098419 C 210.138687 109.51886 195.641174 106.711761 187.654419 95.320221 C 185.019333 91.516998 179.260178 83.349152 178.436157 81.610535 C 177.938095 80.704987 178.273163 79.962433 178.35466 79.799438 L 179.921204 78.975464 L 181.478729 79.301453 L 192.435608 83.186157 C 197.044754 84.173157 201.001892 84.589722 204.868515 87.306305 C 212.194214 92.431549 211.533188 92.676056 216.975403 98.706879 C 220.099472 102.175079 222.816055 106.956268 226.356689 109.935425 C 228.747284 111.909454 230.802811 114.553619 231.871353 117.360779 L 233.600891 121.652985 C 232.124893 110.179932 230.060287 98.869873 226.773224 87.804352 L 225.949203 84.834198 C 222.97905 73.687134 221.829041 61.879059 218.125443 50.904083 C 213.597794 45.208313 207.340607 39.259003 202.151932 35.627808 C 196.3022 31.498596 192.435608 24.399292 187.654419 19.120056 C 185.92485 17.136932 184.448853 14.990845 182.55629 13.170746 L 179.260178 9.956085 C 178.599152 9.123016 178.680649 8.298981 178.843643 7.891479 C 179.097183 7.393494 179.667664 6.813934 180.491684 6.569427 L 184.53035 6.234375 C 190.461548 6.315887 193.667114 9.784088 198.5298 13.33374 C 207.82959 20.270081 212.438705 23.819733 215.164368 28.365509 C 217.962448 32.983704 218.949463 38.679443 220.842026 49.989502 L 220.842026 50.650513 C 223.23262 58.329407 224.545624 66.343353 226.193695 74.185181 Z M 226.193695 74.103699"/>
        </g>
    </g>
</svg>
